Coordinates
version=1
nRows=22
nColumns=24
inDegrees=yes

Units are S.I. units (second, meters, Newtons, ...)
Angles are in degrees.

endheader
time	pelvis_tilt	pelvis_list	pelvis_rotation	pelvis_tx	pelvis_ty	pelvis_tz	hip_flexion_r	hip_adduction_r	hip_rotation_r	knee_angle_r	ankle_angle_r	subtalar_angle_r	mtp_angle_r	hip_flexion_l	hip_adduction_l	hip_rotation_l	knee_angle_l	ankle_angle_l	subtalar_angle_l	mtp_angle_l	lumbar_extension	lumbar_bending	lumbar_rotation
      0.46100000	      0.93467529	      3.32315674	      3.55321429	     -0.75861117	      1.00777774	      0.25889986	     18.89309881	     -1.35885717	     -7.27183654	     -2.18321610	      2.78795147	    -11.13791516	      8.12299949	    -16.35277790	      5.89490408	      6.93303446	     -4.66156567	     10.57526373	    -11.04970253	     -0.95402843	     -5.36475382	     -5.32686359	     -4.87019450
      0.46516667	      0.93550477	      3.32552923	      3.58452429	     -0.75261674	      1.00728829	      0.25905144	     18.80348910	     -1.28219706	     -6.95430185	     -2.27355457	      2.73050646	    -11.40854193	      8.14895276	    -16.42654160	      5.86296296	      6.89161495	     -5.24489965	     10.67768215	    -10.83796261	     -0.94780333	     -5.29264434	     -5.30782425	     -4.82719924
      0.46933333	      1.00255455	      3.31049990	      3.61768700	     -0.74658410	      1.00692983	      0.25918407	     18.64145644	     -1.18980721	     -6.69029282	     -2.43269668	      2.68284471	    -11.55795469	      8.19364328	    -16.54207031	      5.80561375	      6.80103344	     -5.88976321	     10.79387987	    -10.53050376	     -0.91521964	     -5.30330481	     -5.25379825	     -4.89256058
      0.47350000	      1.04378028	      3.29428475	      3.64519796	     -0.74051688	      1.00656882	      0.25932930	     18.50440731	     -1.09596803	     -6.38326153	     -2.64487855	      2.58411901	    -11.76424558	      8.25490669	    -16.60037418	      5.74986506	      6.68156471	     -6.59266056	     10.89392531	    -10.21029848	     -0.85259684	     -5.27503826	     -5.20106923	     -4.92697767
      0.47766667	      1.10281368	      3.28152121	      3.65567691	     -0.73444283	      1.00626098	      0.25949272	     18.35649346	     -1.00250262	     -6.04402427	     -2.92623362	      2.46083774	    -11.97695478	      8.31625392	    -16.66389721	      5.70260981	      6.58153657	     -7.32159052	     10.98456231	     -9.91772475	     -0.77478240	     -5.27557583	     -5.14611267	     -4.95463420
      0.48183333	      1.14188256	      3.25571258	      3.67480630	     -0.72830088	      1.00597582	      0.25966676	     18.20534886	     -0.89576958	     -5.69163992	     -3.20779778	      2.25503194	    -12.24886858	      8.39773693	    -16.65539682	      5.63360437	      6.37985711	     -8.14329520	     11.03102568	     -9.50139547	     -0.65358383	     -5.23559265	     -5.08292900	     -4.97329096
      0.48600000	      1.20295441	      3.22816335	      3.69258342	     -0.72213063	      1.00575451	      0.25983843	     18.02090921	     -0.78772635	     -5.33433598	     -3.51072726	      2.03212836	    -12.53222261	      8.50047078	    -16.64428111	      5.56008937	      6.16442646	     -9.01937567	     11.04446999	     -9.07078243	     -0.48404769	     -5.20401792	     -5.01272844	     -4.97423406
      0.49016667	      1.23388537	      3.20397393	      3.70345504	     -0.71595582	      1.00552950	      0.26002469	     17.88065525	     -0.68477791	     -4.96801458	     -3.87086608	      1.76764383	    -12.81907035	      8.61384230	    -16.55995928	      5.49308483	      5.92795842	     -9.96677575	     11.03531479	     -8.62645610	     -0.26993463	     -5.14440141	     -4.94694917	     -4.97300600
      0.49433333	      1.30963115	      3.17055335	      3.70970644	     -0.70976273	      1.00539327	      0.26022422	     17.68549047	     -0.57026968	     -4.60870202	     -4.24721567	      1.47093477	    -13.11504741	      8.74363228	    -16.48890743	      5.40788173	      5.64172083	    -10.97881428	     11.00341393	     -8.12410380	      0.00910385	     -5.14024905	     -4.86357442	     -4.95792255
      0.49850000	      1.35317268	      3.13557856	      3.68267401	     -0.70354123	      1.00523029	      0.26045426	     17.55101154	     -0.45423650	     -4.28004330	     -4.69288280	      1.18465223	    -13.31730660	     10.87398110	    -16.34609983	      5.32696046	      5.27041672	    -12.04954460	     10.85143076	     -7.65738388	      5.19470987	     -5.08641499	     -4.77040457	     -4.93015927
      0.50266667	      1.38829351	      3.11738743	      3.71494756	     -0.69735650	      1.00512826	      0.26064621	     17.39064644	     -0.36776873	     -3.93806608	     -5.09535489	      0.79957794	    -13.70801943	     10.85494543	    -16.14562479	      5.25037569	      5.02252462	    -13.21487670	     10.73338441	     -7.17974776	      5.28133187	     -5.03321321	     -4.71994417	     -4.91173292
      0.50683333	      1.43241516	      3.08330495	      3.71001191	     -0.69115751	      1.00504759	      0.26087928	     17.24446994	     -0.26039828	     -3.61826614	     -5.55814450	      0.47180416	    -13.97957991	     10.84667468	    -15.90587238	      5.15426654	      4.63698108	    -14.46724039	     10.58093509	     -6.59012629	      5.42930811	     -4.98454824	     -4.63916586	     -4.87675022
      0.51100000	      1.47207781	      3.04676836	      3.71023338	     -0.68496627	      1.00499438	      0.26111197	     17.10500246	     -0.15580762	     -3.32538218	     -6.03737568	      0.14333614	    -14.24460042	     10.84307880	    -15.61671506	      5.04836678	      4.24364741	    -15.79793782	     10.38294257	     -5.99664039	      5.63767244	     -4.93139797	     -4.55083817	     -4.83479328
      0.51516667	      1.53288931	      2.99272892	      3.71731516	     -0.67878717	      1.00501042	      0.26135810	     16.93239660	     -0.03372557	     -3.03652061	     -6.50394206	     -0.22870036	    -14.59587925	     10.84581124	    -15.30287052	      4.90914764	      3.82900023	    -17.19098282	     10.05087780	     -5.47476858	     10.88001716	     -4.91018708	     -4.44201951	     -4.78109137
      0.51933333	      1.55073929	      2.96468537	      3.70734761	     -0.67265506	      1.00496937	      0.26161441	     16.85614032	      0.05044865	     -2.82806679	     -7.08188984	     -0.45122604	    -14.69658078	     10.84529396	    -14.88856379	      4.79856191	      3.37454034	    -18.68886034	      9.74168360	     -4.84563223	     10.94902989	     -4.83340733	     -4.37194454	     -4.74008496
      0.52350000	      1.58844220	      2.91135032	      3.71236281	     -0.66654637	      1.00499021	      0.26187395	     16.74232027	      0.15885055	     -2.62794364	     -7.63018312	     -0.71286194	    -14.89573187	     10.83986770	    -14.44189295	      4.64311404	      2.91113158	    -20.27142886	      9.38941914	     -4.20894991	     11.08168598	     -4.78855972	     -4.26801396	     -4.68511906
      0.52766667	      1.61492997	      2.85667513	      3.71434186	     -0.66046698	      1.00502173	      0.26214722	     16.65088373	      0.26445836	     -2.45376135	     -8.20428288	     -0.92765776	    -15.06474635	     10.82980956	    -13.94066369	      4.47872191	      2.44550006	    -21.91648564	      8.95521020	     -3.60441312	     11.26490264	     -4.73140434	     -4.16407548	     -4.62463348
      0.53183333	      1.64762108	      2.78553391	      3.72288307	     -0.65443011	      1.00508824	      0.26244044	     16.54090043	      0.38961756	     -2.26251220	     -8.75213963	     -1.19687022	    -15.36255693	     10.46419537	    -13.39853763	      4.28127592	      1.97922800	    -23.61842707	      8.39803921	     -3.09158707	     16.35443588	     -4.68698022	     -4.03685314	     -4.54844892
      0.53600000	      1.68432594	      2.72417267	      3.71863526	     -0.64844149	      1.00515889	      0.26272233	     16.46881332	      0.49059902	     -2.18725926	     -9.39496392	     -1.22477175	    -15.32670856	     10.46328182	    -12.82170090	      4.08853844	      1.50074073	    -25.38397997	      7.82718535	     -2.52177711	     16.41436906	     -4.65639651	     -3.92639579	     -4.49594397
      0.54016667	      1.70474478	      2.64838374	      3.72902982	     -0.64249670	      1.00523523	      0.26300839	     16.40137224	      0.60498016	     -2.10658694	    -10.00998820	     -1.29383894	    -15.39908746	     10.45211769	    -12.18116827	      3.87052444	      1.05636274	    -27.21279853	      7.20255139	     -2.00771459	     16.51145772	     -4.61053504	     -3.80025371	     -4.42830625
      0.54433333	      1.73935693	      2.56842569	      3.73172986	     -0.63662368	      1.00533113	      0.26331684	     16.32752677	      0.72359875	     -2.04535239	    -10.63856764	     -1.32367865	    -15.46578664	     10.43052530	    -11.51775907	      3.63708598	      0.60776240	    -29.08979562	      6.55019668	     -1.52307969	     16.65452126	     -4.58904448	     -3.66524706	     -4.35073951
      0.54850000	      1.76735582	      2.47649568	      3.73813461	     -0.63080616	      1.00542811	      0.26362692	     16.26272157	      0.85219218	     -2.00619275	    -11.27034971	     -1.31301545	    -15.52046754	     10.39308099	    -10.81364903	      3.38384585	      0.18796361	    -31.00321507	      5.84886327	     -1.08148601	     16.85662987	     -4.57263861	     -3.51580070	     -4.26920889
